<svg width="46" height="46" viewBox="0 0 46 46" fill="none" xmlns="http://www.w3.org/2000/svg">
<path d="M29.2649 15.2513L25.7708 14.7437L24.2085 11.5776C23.9815 11.1175 23.513 10.8263 23 10.8263C22.487 10.8263 22.0185 11.1176 21.7915 11.5775L20.2288 14.7437L16.7351 15.2513C16.2275 15.325 15.8056 15.6806 15.6472 16.1685C15.4886 16.6563 15.6208 17.1919 15.9881 17.5499L18.5162 20.0142L17.9194 23.4939C17.8327 23.9995 18.0405 24.5105 18.4555 24.812C18.6903 24.9825 18.9683 25.0694 19.2477 25.0694C19.4622 25.0694 19.6775 25.0183 19.8747 24.9146L23.0001 23.2719L26.1251 24.9147C26.3234 25.0189 26.5421 25.0697 26.7558 25.0695C27.4993 25.0685 28.1016 24.4655 28.1016 23.7218C28.1016 23.6183 28.09 23.5176 28.0679 23.4208L27.4836 20.0142L30.0118 17.5499C30.3791 17.1919 30.5114 16.6563 30.3528 16.1685C30.1942 15.6806 29.7725 15.325 29.2649 15.2513ZM25.0949 18.5788C24.7773 18.8884 24.6323 19.3345 24.7073 19.7717L24.9622 21.2584L23.6271 20.5565C23.2345 20.3502 22.7655 20.3501 22.3729 20.5565L21.0376 21.2585L21.2926 19.7717C21.3676 19.3345 21.2226 18.8884 20.905 18.5788L19.8249 17.5259L21.3175 17.3091C21.7565 17.2453 22.1359 16.9696 22.3322 16.5719L22.9999 15.2191L23.6674 16.5718C23.8637 16.9696 24.2431 17.2454 24.6821 17.3091L26.175 17.5259L25.0949 18.5788Z" fill="#808080"/>
<path d="M41.7653 5.77399H41.3786C41.5656 5.29647 41.6694 4.77762 41.6694 4.23461C41.6694 1.89966 39.7697 0 37.4347 0H8.56507C6.23004 0 4.33038 1.89957 4.33038 4.23461C4.33038 4.77753 4.43424 5.29647 4.62129 5.77399H4.23461C1.89966 5.77399 0 7.67364 0 10.0086C0 15.7843 2.40431 21.2091 6.76991 25.2836C9.91471 28.2188 13.8075 30.1975 18.0436 31.0652V34.6437H15.7825C13.0494 34.6437 10.826 36.8672 10.826 39.6001V44.6523C10.826 45.3966 11.4294 46 12.1736 46H33.8263C34.5705 46 35.1739 45.3966 35.1739 44.6523V39.6002C35.1739 36.8673 32.9505 34.6438 30.2174 34.6438H27.9563V31.0653C32.1925 30.1976 36.0853 28.2188 39.2301 25.2836C43.5957 21.2091 46 15.7843 46 10.0086C46 7.67364 44.1003 5.77399 41.7653 5.77399ZM23.0004 28.8698C23.0005 28.8698 23.0004 28.8698 23.0004 28.8698C19.3024 28.8698 16.1559 27.1452 13.9018 23.8826C11.4573 20.3446 10.0923 15.0349 9.92935 8.46921H36.0707C35.9078 15.0348 34.5427 20.3445 32.0983 23.8826C29.8442 27.1452 26.6982 28.8697 23.0004 28.8698ZM7.02569 4.23461C7.02569 3.38585 7.71623 2.69531 8.56507 2.69531H37.4348C38.2836 2.69531 38.9742 3.38585 38.9742 4.23461C38.9742 5.08345 38.2837 5.77399 37.4348 5.77399H8.56507C7.71623 5.77399 7.02569 5.08345 7.02569 4.23461ZM2.69531 10.0086C2.69531 9.15984 3.38576 8.4693 4.23461 8.4693H7.23314C7.3972 15.677 8.89211 21.3736 11.6842 25.4147C11.7875 25.5643 11.8931 25.7105 11.9996 25.8549C6.40532 22.4924 2.69531 16.6456 2.69531 10.0086ZM32.4786 39.6001V43.3047H13.5213V39.6002C13.5213 38.3534 14.5357 37.3391 15.7825 37.3391H30.2174C31.4643 37.3391 32.4786 38.3534 32.4786 39.6001ZM25.261 34.6437H20.7389V31.4627C21.4857 31.5306 22.24 31.5652 23 31.5652C23.7598 31.5652 24.5144 31.5307 25.261 31.4627V34.6437ZM34.0003 25.8551C34.1068 25.7106 34.2124 25.5644 34.3158 25.4148C37.1078 21.3736 38.6028 15.6771 38.7669 8.46939H41.7654C42.6141 8.46939 43.3048 9.15993 43.3048 10.0087C43.3047 16.6456 39.5946 22.4925 34.0003 25.8551Z" fill="#808080"/>
</svg>
