<svg width="46" height="46" viewBox="0 0 46 46" fill="none" xmlns="http://www.w3.org/2000/svg">
<path d="M44.8499 19.918C44.8485 19.9169 44.8474 19.9155 44.8464 19.9145L26.082 1.15077C25.2822 0.350602 24.2188 -0.0898438 23.0876 -0.0898438C21.9565 -0.0898438 20.8931 0.350602 20.093 1.15077L1.3384 19.905C1.33208 19.9113 1.32541 19.918 1.31945 19.9243C-0.323013 21.5762 -0.320205 24.2565 1.32752 25.9042C2.08031 26.6573 3.07421 27.0932 4.13725 27.1392C4.18077 27.1434 4.22428 27.1455 4.26815 27.1455H5.01568V40.9541C5.01568 43.687 7.23932 45.9102 9.97219 45.9102H17.3134C18.0578 45.9102 18.6611 45.3066 18.6611 44.5626V33.7364C18.6611 32.4895 19.6757 31.4752 20.9226 31.4752H25.2527C26.4996 31.4752 27.5139 32.4895 27.5139 33.7364V44.5626C27.5139 45.3066 28.1172 45.9102 28.8615 45.9102H36.2028C38.936 45.9102 41.1593 43.687 41.1593 40.9541V27.1455H41.8527C42.9835 27.1455 44.0469 26.7051 44.8474 25.9045C46.4969 24.2544 46.4976 21.5692 44.8499 19.918ZM42.9414 23.9989C42.6505 24.2898 42.2637 24.4502 41.8527 24.4502H39.8116C39.0672 24.4502 38.4639 25.0535 38.4639 25.7978V40.9541C38.4639 42.2007 37.4497 43.2149 36.2028 43.2149H30.2092V33.7364C30.2092 31.0035 27.9859 28.7799 25.2527 28.7799H20.9226C18.1894 28.7799 15.9658 31.0035 15.9658 33.7364V43.2149H9.97219C8.72561 43.2149 7.711 42.2007 7.711 40.9541V25.7978C7.711 25.0535 7.10771 24.4502 6.36334 24.4502H4.35729C4.33624 24.4488 4.31553 24.4477 4.29412 24.4474C3.89263 24.4404 3.51606 24.281 3.23389 23.9985C2.63376 23.3984 2.63376 22.4217 3.23389 21.8212C3.23425 21.8212 3.23425 21.8208 3.2346 21.8205L3.23565 21.8194L21.9993 3.05645C22.2899 2.76551 22.6763 2.60547 23.0876 2.60547C23.4986 2.60547 23.885 2.76551 24.176 3.05645L42.9354 21.8156C42.9382 21.8184 42.9414 21.8212 42.9442 21.824C43.5412 22.4252 43.5401 23.3998 42.9414 23.9989Z" fill="#808080"/>
</svg>
