<svg width="46" height="46" viewBox="0 0 46 46" fill="none" xmlns="http://www.w3.org/2000/svg">
<path d="M41.9569 21.7425H4.04295C1.81367 21.7425 0 23.5561 0 25.7854V41.9573C0 44.1866 1.81367 46.0002 4.04295 46.0002H41.9569C44.1861 46.0002 45.9998 44.1866 45.9998 41.9573V25.7854C45.9998 23.5561 44.1861 21.7425 41.9569 21.7425ZM43.3045 41.9573C43.3045 42.7004 42.7 43.3049 41.9569 43.3049H4.04295C3.29986 43.3049 2.6953 42.7004 2.6953 41.9573V25.7854C2.6953 25.0423 3.29986 24.4378 4.04295 24.4378H41.9569C42.7 24.4378 43.3045 25.0423 43.3045 25.7854V41.9573Z" fill="#808080"/>
<path d="M12.2183 37.9141H8.17534V28.4805C8.17534 27.7363 7.57195 27.1329 6.82768 27.1329C6.08341 27.1329 5.48002 27.7363 5.48002 28.4805V39.2618C5.48002 40.006 6.08341 40.6094 6.82768 40.6094H12.2183C12.9626 40.6094 13.566 40.006 13.566 39.2618C13.566 38.5175 12.9626 37.9141 12.2183 37.9141Z" fill="#808080"/>
<path d="M17.6089 27.1329C16.8647 27.1329 16.2613 27.7363 16.2613 28.4805V39.2618C16.2613 40.006 16.8647 40.6094 17.6089 40.6094C18.3532 40.6094 18.9566 40.006 18.9566 39.2618V28.4805C18.9566 27.7363 18.3532 27.1329 17.6089 27.1329Z" fill="#808080"/>
<path d="M39.1719 29.8282C39.9161 29.8282 40.5195 29.2248 40.5195 28.4805C40.5195 27.7363 39.9161 27.1329 39.1719 27.1329H33.7812C33.037 27.1329 32.4336 27.7363 32.4336 28.4805V39.2618C32.4336 40.006 33.037 40.6094 33.7812 40.6094H39.1719C39.9161 40.6094 40.5195 40.006 40.5195 39.2618C40.5195 38.5175 39.9161 37.9141 39.1719 37.9141H35.1289V35.2188H39.1719C39.9161 35.2188 40.5195 34.6154 40.5195 33.8712C40.5195 33.1269 39.9161 32.5235 39.1719 32.5235H35.1289V29.8282H39.1719Z" fill="#808080"/>
<path d="M28.7176 27.1731C27.9954 26.9928 27.2638 27.4316 27.0833 28.1537L25.6954 33.7052L24.3075 28.1537C24.127 27.4316 23.3951 26.9925 22.6733 27.1731C21.9512 27.3536 21.5122 28.0853 21.6927 28.8074L24.388 39.5887C24.538 40.1885 25.077 40.6095 25.6954 40.6095C26.3138 40.6095 26.8529 40.1885 27.0028 39.5887L29.6981 28.8074C29.8786 28.0853 29.4396 27.3536 28.7176 27.1731Z" fill="#808080"/>
<path d="M13.0268 18.5973C13.622 18.1504 13.7422 17.3056 13.2953 16.7104C10.0781 12.426 10.0781 6.44138 13.2953 2.157C13.7423 1.56178 13.622 0.717071 13.0268 0.270098C12.4317 -0.176784 11.5869 -0.0566633 11.14 0.538552C7.2073 5.7759 7.2073 13.0915 11.14 18.3289C11.5874 18.9248 12.4323 19.0438 13.0268 18.5973Z" fill="#808080"/>
<path d="M32.9731 18.5973C33.5671 19.0434 34.4122 18.9253 34.8599 18.3289C38.7926 13.0915 38.7926 5.77591 34.8599 0.538562C34.413 -0.0566532 33.5682 -0.176864 32.9731 0.270109C32.3779 0.716991 32.2577 1.56179 32.7046 2.15701C35.9218 6.44148 35.9218 12.4261 32.7046 16.7104C32.2577 17.3057 32.378 18.1504 32.9731 18.5973Z" fill="#808080"/>
<path d="M17.8718 15.8282C18.4262 15.3317 18.4732 14.4797 17.9767 13.9253C15.6836 11.3646 15.6836 7.50269 17.9767 4.94214C18.4731 4.38772 18.4262 3.53573 17.8718 3.03916C17.3174 2.54268 16.4655 2.58958 15.9688 3.14401C14.4219 4.87143 13.5699 7.10513 13.5699 9.4337C13.5699 11.7623 14.4218 13.996 15.9688 15.7234C16.4638 16.2761 17.3156 16.3263 17.8718 15.8282Z" fill="#808080"/>
<path d="M28.1277 15.8283C28.6847 16.327 29.5364 16.2753 30.0307 15.7234C31.5776 13.996 32.4296 11.7623 32.4296 9.43371C32.4296 7.10514 31.5777 4.87145 30.0307 3.14402C29.5342 2.58959 28.6822 2.5427 28.1277 3.03917C27.5733 3.53574 27.5263 4.38773 28.0229 4.94215C30.316 7.50279 30.316 11.3647 28.0229 13.9253C27.5263 14.4798 27.5732 15.3317 28.1277 15.8283Z" fill="#808080"/>
<path d="M23 13.4767C25.2293 13.4767 27.043 11.6631 27.043 9.43376C27.043 7.20446 25.2293 5.39078 23 5.39078C20.7707 5.39078 18.957 7.20446 18.957 9.43376C18.957 11.6631 20.7707 13.4767 23 13.4767ZM23 8.0861C23.7431 8.0861 24.3477 8.69066 24.3477 9.43376C24.3477 10.1769 23.7431 10.7814 23 10.7814C22.2569 10.7814 21.6523 10.1769 21.6523 9.43376C21.6523 8.69066 22.2569 8.0861 23 8.0861Z" fill="#808080"/>
</svg>
